<?xml version="1.0" encoding="UTF-8"?>
<svg width="88px" height="88px" viewBox="0 0 88 88" version="1.1" xmlns="http://www.w3.org/2000/svg" xmlns:xlink="http://www.w3.org/1999/xlink">
    <!-- Generator: Sketch 51 (57462) - http://www.bohemiancoding.com/sketch -->
    <title>Device2/devices_icon_lighting1_s</title>
    <desc>Created with Sketch.</desc>
    <defs>
        <linearGradient x1="112.960737%" y1="-19.1113281%" x2="-16.6566506%" y2="116.977539%" id="linearGradient-1">
            <stop stop-color="#8AADEC" offset="0%"></stop>
            <stop stop-color="#1E50A0" offset="100%"></stop>
        </linearGradient>
    </defs>
    <g id="Device2/devices_icon_lighting1_s" stroke="none" stroke-width="1" fill="none" fill-rule="evenodd">
        <path d="M31.1401,70.8879 L57.3401,70.8879 C57.3401,78.1209 51.4861,83.9999 44.2521,83.9999 C37.0191,83.9999 31.1401,78.1209 31.1401,70.8879 Z M74.4802,34.2401 C74.4802,44.6001 69.2582,53.7221 61.3122,59.1661 C59.1412,60.6541 57.7472,63.0281 57.7472,65.6601 L57.7472,66.2951 L30.7332,66.2951 L30.7332,65.9381 C30.7332,63.1451 29.2602,60.6251 26.9682,59.0281 C18.3692,53.0351 13.0212,42.7081 14.1492,31.1941 C15.5222,17.1841 26.7932,5.7431 40.7842,4.1921 C59.0322,2.1691 74.4802,16.4001 74.4802,34.2401 Z" id="Combined-Shape" fill="url(#linearGradient-1)"></path>
    </g>
</svg>