<?xml version="1.0" encoding="UTF-8"?>
<svg width="88px" height="88px" viewBox="0 0 88 88" version="1.1" xmlns="http://www.w3.org/2000/svg" xmlns:xlink="http://www.w3.org/1999/xlink">
    <!-- Generator: Sketch 51 (57462) - http://www.bohemiancoding.com/sketch -->
    <title>Device2/devices_icon_lighting4_s</title>
    <desc>Created with Sketch.</desc>
    <defs>
        <linearGradient x1="112.960737%" y1="-19.1113281%" x2="-16.6566506%" y2="116.977539%" id="linearGradient-1">
            <stop stop-color="#8AADEC" offset="0%"></stop>
            <stop stop-color="#1E50A0" offset="100%"></stop>
        </linearGradient>
    </defs>
    <g id="Device2/devices_icon_lighting4_s" stroke="none" stroke-width="1" fill="none" fill-rule="evenodd">
        <path d="M77.1629897,13.4620407 C77.1629897,13.0254709 76.5602663,12.3362663 75.1689685,11.5665773 C73.5382671,10.6644464 71.0925855,9.81737788 68.0050933,9.09492919 C61.5635081,7.58764935 52.8021089,6.72052157 43.4422413,6.72052157 C34.081957,6.72052157 25.3203236,7.58764697 18.8786111,9.0949305 C15.7910702,9.81737807 13.3453585,10.6644466 11.7146406,11.5665797 C10.3233345,12.3362673 9.72060989,13.0254708 9.72060989,13.4620407 C9.72060989,13.8986105 10.3233345,14.5878141 11.7146406,15.3575016 C13.3453585,16.2596348 15.7910702,17.1067033 18.8786111,17.8291508 C25.3203236,19.3364344 34.081957,20.2035598 43.4422413,20.2035598 C52.8021089,20.2035598 61.5635081,19.336432 68.0050933,17.8291522 C71.0925855,17.1067035 73.5382671,16.259635 75.1689685,15.357504 C76.5602663,14.587815 77.1629897,13.8986104 77.1629897,13.4620407 Z M54.6617054,77.0933771 L54.6617054,81.5557818 C54.6617054,83.4981753 52.4508928,84.4379054 49.9099616,84.4379054 C47.3682438,84.4379054 45.1573346,83.4983105 45.1573346,81.5557818 L45.1573346,80.2398505 C44.6124944,80.2657402 44.0410903,80.2792589 43.4422413,80.2792589 C42.8431338,80.2792589 42.2714946,80.2657325 41.7264416,80.2398285 L41.7264416,81.5557818 C41.7264416,83.4983105 39.5155324,84.4379054 36.9738146,84.4379054 C34.4328834,84.4379054 32.2220708,83.4981753 32.2220708,81.5557818 L32.2220708,77.0934914 C31.1247556,76.287134 29.9372567,75.3654735 29.4852781,74.9140089 C28.4173578,73.8448709 27.7191739,72.7554548 27.7191739,71.7502993 C27.7191739,71.6366386 27.4028218,64.0387216 27.2875445,61.0922865 C27.2493336,60.1156317 27.213298,59.1741686 27.1794169,58.2652724 C27.0793932,55.5820389 27.0000575,53.2347547 26.9443634,51.2601641 C26.8689244,48.5751404 26.1079653,47.1130788 24.109787,45.2330631 C23.7180074,44.8644514 21.6607718,43.0582842 21.0382361,42.4742714 C19.6555844,41.1771791 18.4905051,39.8959632 17.3734736,38.3729349 C16.5945533,37.3109077 15.862876,36.1583135 15.1720633,34.8896115 C13.1748009,31.220673 11.3189429,25.1571815 10.7250208,21.7110357 C8.16378658,20.082212 6.72078652,18.1898705 6.72078652,16.1017329 L6.72078652,13.4960119 C6.72066879,13.484696 6.72060989,13.4733722 6.72060989,13.4620407 C6.72060989,7.51580378 22.9405954,3.72052157 43.4422413,3.72052157 C63.9431261,3.72052157 80.1629897,7.51584098 80.1629897,13.4620407 L80.1631663,16.1017329 C80.1631663,18.163977 78.7557391,20.0352453 76.2536995,21.6503091 C75.8807166,24.8474584 74.0074953,30.671972 71.7115117,34.8896565 C71.0202204,36.1594442 70.287908,37.3130286 69.508249,38.3758942 C68.3916671,39.8980679 67.227066,41.1786497 65.844958,42.47521 C65.2226787,43.0589724 63.166148,44.8645526 62.7744548,45.2330747 C60.7760948,47.113219 60.0149719,48.5753189 59.9392316,51.2603277 C59.8835435,53.2347027 59.8042651,55.5819308 59.7043431,58.2652146 C59.6705748,59.1720213 59.6346665,60.1112673 59.5965966,61.0855751 C59.4815403,64.0301594 59.1653088,71.6363084 59.1653088,71.7502993 C59.1653088,72.7555275 58.4670072,73.8441046 57.3971127,74.9152176 C56.9459346,75.3658819 55.758853,76.2871629 54.6617054,77.0933771 Z M75.9954616,18.2455296 C69.8976532,21.3662559 57.7061627,23.2035598 43.4422413,23.2035598 C29.1783529,23.2035598 16.9870413,21.3664188 10.8889078,18.2459152 C14.7771877,21.8357761 27.918912,24.95 43.4415348,24.95 C58.9653463,24.95 72.107671,21.8355702 75.9954616,18.2455296 Z M31.394275,47.4253745 C34.0437417,48.8916971 38.5403718,49.7741946 43.454782,49.7741946 C48.3517258,49.7741946 52.8328617,48.8980326 55.4869012,47.4401526 L54.5239977,45.6872074 C52.2065401,46.9602009 48.0433644,47.7741946 43.454782,47.7741946 C38.8505718,47.7741946 34.6736358,46.9544395 32.3627317,45.6754911 L31.394275,47.4253745 Z" id="Combined-Shape" fill="url(#linearGradient-1)"></path>
    </g>
</svg>