<?xml version="1.0" encoding="UTF-8"?>
<svg width="88px" height="88px" viewBox="0 0 88 88" version="1.1" xmlns="http://www.w3.org/2000/svg" xmlns:xlink="http://www.w3.org/1999/xlink">
    <!-- Generator: Sketch 51 (57462) - http://www.bohemiancoding.com/sketch -->
    <title>Device2/devices_icon_lighting5_s</title>
    <desc>Created with Sketch.</desc>
    <defs>
        <linearGradient x1="112.960737%" y1="-19.1113281%" x2="-16.6566506%" y2="116.977539%" id="linearGradient-1">
            <stop stop-color="#8AADEC" offset="0%"></stop>
            <stop stop-color="#1E50A0" offset="100%"></stop>
        </linearGradient>
    </defs>
    <g id="Device2/devices_icon_lighting5_s" stroke="none" stroke-width="1" fill="none" fill-rule="evenodd">
        <path d="M45.8989888,68.2625373 C61.1117811,67.94517 73.2075472,62.8065088 73.2075472,56.5139263 C73.2075472,50.0167652 60.3125032,44.7497754 44.4056604,44.7497754 C28.4988175,44.7497754 15.6037736,50.0167652 15.6037736,56.5139263 C15.6037736,62.9867528 28.4024035,68.2386058 44.2270539,68.2778558 C44.1514153,68.2780034 44.0757305,68.2780773 44,68.2780773 C20.2517558,68.2780773 1,61.0132638 1,52.0516622 C1,45.251435 12.0852608,39.4282273 27.8087414,37.0148846 L28.0281051,34.3130992 C32.1106343,31.5988141 37.9450763,30.0013274 44.2274162,30.0013274 C49.8456338,30.0013274 55.1122243,31.2778264 59.0947054,33.5018285 L59.3700053,36.8925513 C59.4884815,36.9096673 59.6067058,36.9269754 59.7246755,36.9444746 L60.4910222,27.5045753 L58.6285247,27.7601282 L58.9033998,31.1456185 C54.7842336,29.1289985 49.6490007,28.0013274 44.2274162,28.0013274 C38.2008015,28.0013274 32.5338342,29.395703 28.228615,31.8435249 L28.5849057,27.4552823 C28.5849057,22.7855588 32.5805531,19 37.509434,19 L49.6792453,19 C53.6279779,19 56.977735,21.4296785 58.1538372,24.7971519 L61.9333027,24.278572 C62.8832209,24.1482339 63.7098717,24.9303473 63.6322885,25.8860216 L62.6947313,37.4349019 C77.0786383,40.0594311 87,45.6183281 87,52.0516622 C87,60.7731434 68.7660998,67.887547 45.8989888,68.2625373 Z M24.528514,51.2097202 C24.5283726,51.2199217 24.5283019,51.2301288 24.5283019,51.2403414 C24.5283019,54.8249821 33.2460781,57.7309075 44,57.7309075 C54.7539219,57.7309075 63.4716981,54.8249821 63.4716981,51.2403414 C63.4716981,51.1150743 63.4610521,50.990636 63.4400451,50.8671215 C67.6547713,52.505146 70.2075472,54.571346 70.2075472,56.5139263 C70.2075472,60.6198651 58.8029587,65.2780773 44.4056604,65.2780773 C30.0083621,65.2780773 18.6037736,60.6198651 18.6037736,56.5139263 C18.6037736,54.7044642 20.8186714,52.7877444 24.528514,51.2097202 Z" id="Combined-Shape" fill="url(#linearGradient-1)"></path>
    </g>
</svg>