<?xml version="1.0" encoding="UTF-8"?>
<svg width="88px" height="88px" viewBox="0 0 88 88" version="1.1" xmlns="http://www.w3.org/2000/svg" xmlns:xlink="http://www.w3.org/1999/xlink">
    <!-- Generator: Sketch 51 (57462) - http://www.bohemiancoding.com/sketch -->
    <title>Device2/devices_icon_gateway4_s </title>
    <desc>Created with Sketch.</desc>
    <defs>
        <linearGradient x1="112.960737%" y1="-19.1113281%" x2="-16.6566506%" y2="116.977539%" id="linearGradient-1">
            <stop stop-color="#8AADEC" offset="0%"></stop>
            <stop stop-color="#1E50A0" offset="100%"></stop>
        </linearGradient>
    </defs>
    <g id="Device2/devices_icon_gateway4_s-" stroke="none" stroke-width="1" fill="none" fill-rule="evenodd">
        <path d="M25,4 L63,4 C74.045695,4 83,12.954305 83,24 L83,64 C83,75.045695 74.045695,84 63,84 L25,84 C13.954305,84 5,75.045695 5,64 L5,24 C5,12.954305 13.954305,4 25,4 Z M33,71 C34.1045695,71 35,70.1045695 35,69 C35,67.8954305 34.1045695,67 33,67 C31.8954305,67 31,67.8954305 31,69 C31,70.1045695 31.8954305,71 33,71 Z M44,71 C45.1045695,71 46,70.1045695 46,69 C46,67.8954305 45.1045695,67 44,67 C42.8954305,67 42,67.8954305 42,69 C42,70.1045695 42.8954305,71 44,71 Z M55,71 C56.1045695,71 57,70.1045695 57,69 C57,67.8954305 56.1045695,67 55,67 C53.8954305,67 53,67.8954305 53,69 C53,70.1045695 53.8954305,71 55,71 Z" id="Combined-Shape" fill="url(#linearGradient-1)"></path>
    </g>
</svg>