<?xml version="1.0" encoding="UTF-8"?>
<svg width="88px" height="88px" viewBox="0 0 88 88" version="1.1" xmlns="http://www.w3.org/2000/svg" xmlns:xlink="http://www.w3.org/1999/xlink">
    <!-- Generator: Sketch 51 (57462) - http://www.bohemiancoding.com/sketch -->
    <title>Device2/devices_icon_gateway2_s </title>
    <desc>Created with Sketch.</desc>
    <defs>
        <linearGradient x1="112.960737%" y1="-19.1113281%" x2="-16.6566506%" y2="116.977539%" id="linearGradient-1">
            <stop stop-color="#8AADEC" offset="0%"></stop>
            <stop stop-color="#1E50A0" offset="100%"></stop>
        </linearGradient>
    </defs>
    <g id="Device2/devices_icon_gateway2_s-" stroke="none" stroke-width="1" fill="none" fill-rule="evenodd">
        <path d="M13,4 L75,4 C79.418278,4 83,7.581722 83,12 L83,76 C83,80.418278 79.418278,84 75,84 L13,84 C8.581722,84 5,80.418278 5,76 L5,12 C5,7.581722 8.581722,4 13,4 Z M51,71.702 C51,73.194 52.21,74.404 53.702,74.404 C55.194,74.404 56.404,73.194 56.404,71.702 C56.404,70.21 55.194,69 53.702,69 C52.21,69 51,70.21 51,71.702 Z M42,71.702 C42,73.194 43.21,74.404 44.702,74.404 C46.194,74.404 47.404,73.194 47.404,71.702 C47.404,70.21 46.194,69 44.702,69 C43.21,69 42,70.21 42,71.702 Z M32,71.702 C32,73.194 33.21,74.404 34.702,74.404 C36.194,74.404 37.404,73.194 37.404,71.702 C37.404,70.21 36.194,69 34.702,69 C33.21,69 32,70.21 32,71.702 Z M44,62 C57.254834,62 68,51.254834 68,38 C68,24.745166 57.254834,14 44,14 C30.745166,14 20,24.745166 20,38 C20,51.254834 30.745166,62 44,62 Z M44,60 C31.8497355,60 22,50.1502645 22,38 C22,25.8497355 31.8497355,16 44,16 C56.1502645,16 66,25.8497355 66,38 C66,50.1502645 56.1502645,60 44,60 Z" id="Combined-Shape" fill="url(#linearGradient-1)"></path>
    </g>
</svg>