<?xml version="1.0" encoding="UTF-8"?>
<svg width="88px" height="88px" viewBox="0 0 88 88" version="1.1" xmlns="http://www.w3.org/2000/svg" xmlns:xlink="http://www.w3.org/1999/xlink">
    <!-- Generator: Sketch 51 (57462) - http://www.bohemiancoding.com/sketch -->
    <title>Device2/devices_icon_gateway1_s </title>
    <desc>Created with Sketch.</desc>
    <defs>
        <linearGradient x1="112.960737%" y1="-19.1113281%" x2="-16.6566506%" y2="116.977539%" id="linearGradient-1">
            <stop stop-color="#8AADEC" offset="0%"></stop>
            <stop stop-color="#1E50A0" offset="100%"></stop>
        </linearGradient>
    </defs>
    <g id="Device2/devices_icon_gateway1_s-" stroke="none" stroke-width="1" fill="none" fill-rule="evenodd">
        <path d="M44,84 C21.944,84 4,66.056 4,44 C4,21.944 21.944,4 44,4 C66.056,4 84,21.944 84,44 C84,66.056 66.056,84 44,84 Z M46.7021,16.6612 C46.7021,18.1532 45.4921,19.3632 44.0001,19.3632 C42.5081,19.3632 41.2981,18.1532 41.2981,16.6612 C41.2981,15.1692 42.5081,13.9592 44.0001,13.9592 C45.4921,13.9592 46.7021,15.1692 46.7021,16.6612 M35.4688,71.6367 C35.2138,71.6367 34.9558,71.5727 34.7198,71.4357 C34.0018,71.0217 33.7568,70.1047 34.1708,69.3867 L37.2548,64.0457 C37.6688,63.3277 38.5878,63.0827 39.3038,63.4967 C40.0218,63.9107 40.2668,64.8277 39.8528,65.5457 L36.7688,70.8867 C36.4908,71.3677 35.9868,71.6367 35.4688,71.6367 M42.457,71.6367 C42.202,71.6367 41.944,71.5727 41.708,71.4357 C40.99,71.0217 40.745,70.1047 41.159,69.3867 L44.243,64.0457 C44.657,63.3277 45.575,63.0827 46.292,63.4967 C47.01,63.9107 47.255,64.8277 46.841,65.5457 L43.757,70.8867 C43.479,71.3677 42.975,71.6367 42.457,71.6367 M49.4453,71.6367 C49.1903,71.6367 48.9323,71.5727 48.6963,71.4357 C47.9783,71.0217 47.7333,70.1047 48.1473,69.3867 L51.2313,64.0457 C51.6453,63.3277 52.5643,63.0827 53.2803,63.4967 C53.9983,63.9107 54.2433,64.8277 53.8293,65.5457 L50.7453,70.8867 C50.4673,71.3677 49.9633,71.6367 49.4453,71.6367" id="Combined-Shape" fill="url(#linearGradient-1)" transform="translate(44.000000, 44.000000) rotate(-270.000000) translate(-44.000000, -44.000000) "></path>
    </g>
</svg>