<?xml version="1.0" encoding="UTF-8"?>
<svg width="88px" height="88px" viewBox="0 0 88 88" version="1.1" xmlns="http://www.w3.org/2000/svg" xmlns:xlink="http://www.w3.org/1999/xlink">
    <!-- Generator: Sketch 51 (57462) - http://www.bohemiancoding.com/sketch -->
    <title>Device2/devices_icon_smoke4_s</title>
    <desc>Created with Sketch.</desc>
    <defs>
        <linearGradient x1="112.960737%" y1="-19.1113281%" x2="-16.6566506%" y2="116.977539%" id="linearGradient-1">
            <stop stop-color="#8AADEC" offset="0%"></stop>
            <stop stop-color="#1E50A0" offset="100%"></stop>
        </linearGradient>
    </defs>
    <g id="Device2/devices_icon_smoke4_s" stroke="none" stroke-width="1" fill="none" fill-rule="evenodd">
        <path d="M81.702,41.3169 L80.288,42.7309 C80.19,42.8289 80.062,42.8779 79.934,42.8779 C79.806,42.8779 79.679,42.8289 79.581,42.7309 C79.386,42.5359 79.386,42.2189 79.581,42.0239 L80.995,40.6099 C81.19,40.4149 81.507,40.4149 81.702,40.6099 C81.897,40.8049 81.897,41.1219 81.702,41.3169 Z M81.702,46.2129 L80.288,47.6289 C80.19,47.7259 80.062,47.7749 79.934,47.7749 C79.806,47.7749 79.679,47.7259 79.581,47.6289 C79.386,47.4329 79.386,47.1169 79.581,46.9209 L80.995,45.5059 C81.19,45.3109 81.507,45.3109 81.702,45.5059 C81.897,45.7019 81.897,46.0179 81.702,46.2129 Z M81.702,51.1109 L80.288,52.5249 C80.19,52.6229 80.062,52.6709 79.934,52.6709 C79.806,52.6709 79.679,52.6229 79.581,52.5249 C79.386,52.3299 79.386,52.0129 79.581,51.8179 L80.995,50.4039 C81.19,50.2089 81.507,50.2089 81.702,50.4039 C81.897,50.5989 81.897,50.9159 81.702,51.1109 Z M81.702,56.0069 L80.288,57.4209 C80.19,57.5189 80.062,57.5679 79.934,57.5679 C79.806,57.5679 79.679,57.5189 79.581,57.4209 C79.386,57.2259 79.386,56.9099 79.581,56.7139 L80.995,55.2999 C81.19,55.1049 81.507,55.1049 81.702,55.2999 C81.897,55.4959 81.897,55.8119 81.702,56.0069 Z M81.702,60.9049 L80.288,62.3189 C80.19,62.4169 80.062,62.4649 79.934,62.4649 C79.806,62.4649 79.679,62.4169 79.581,62.3189 C79.386,62.1239 79.386,61.8069 79.581,61.6119 L80.995,60.1979 C81.19,60.0029 81.507,60.0029 81.702,60.1979 C81.897,60.3929 81.897,60.7099 81.702,60.9049 Z M81.702,65.8009 L80.288,67.2149 C80.19,67.3129 80.062,67.3619 79.934,67.3619 C79.806,67.3619 79.679,67.3129 79.581,67.2149 C79.386,67.0199 79.386,66.7039 79.581,66.5079 L80.995,65.0939 C81.19,64.8989 81.507,64.8989 81.702,65.0939 C81.897,65.2899 81.897,65.6059 81.702,65.8009 Z M81.506,70.8939 L80.092,72.3079 C79.994,72.4059 79.866,72.4549 79.738,72.4549 C79.61,72.4549 79.482,72.4059 79.385,72.3079 C79.189,72.1129 79.189,71.7959 79.385,71.6009 L80.799,70.1869 C80.994,69.9919 81.31,69.9919 81.506,70.1869 C81.701,70.3819 81.701,70.6989 81.506,70.8939 Z M77.747,59.9629 L75.207,62.5029 C75.109,62.5999 74.981,62.6489 74.853,62.6489 C74.725,62.6489 74.598,62.5999 74.5,62.5029 C74.305,62.3069 74.305,61.9909 74.5,61.7959 L77.04,59.2549 C77.235,59.0599 77.552,59.0599 77.747,59.2549 C77.942,59.4509 77.942,59.7669 77.747,59.9629 Z M77.721,64.8849 L75.154,67.4519 C75.056,67.5489 74.929,67.5979 74.801,67.5979 C74.673,67.5979 74.545,67.5489 74.447,67.4519 C74.252,67.2559 74.252,66.9399 74.447,66.7449 L77.014,64.1779 C77.209,63.9829 77.525,63.9829 77.721,64.1779 C77.916,64.3739 77.916,64.6899 77.721,64.8849 Z M77.674,69.8299 L75.059,72.4439 C74.962,72.5419 74.834,72.5899 74.706,72.5899 C74.578,72.5899 74.45,72.5419 74.352,72.4439 C74.157,72.2489 74.157,71.9319 74.352,71.7369 L76.967,69.1229 C77.162,68.9269 77.478,68.9269 77.674,69.1229 C77.869,69.3179 77.869,69.6339 77.674,69.8299 Z M77.498,74.9019 L74.904,77.4959 C74.806,77.5929 74.679,77.6419 74.551,77.6419 C74.423,77.6419 74.295,77.5929 74.197,77.4959 C74.002,77.2999 74.002,76.9839 74.197,76.7889 L76.791,74.1949 C76.986,73.9999 77.303,73.9999 77.498,74.1949 C77.693,74.3899 77.693,74.7069 77.498,74.9019 Z M73.411,58.6939 C73.216,58.4989 73.216,58.1819 73.411,57.9869 L76.496,54.9029 C76.691,54.7079 77.008,54.7079 77.203,54.9029 C77.398,55.0979 77.398,55.4149 77.203,55.6099 L74.118,58.6939 C74.02,58.7919 73.892,58.8399 73.765,58.8399 C73.637,58.8399 73.509,58.7919 73.411,58.6939 Z M72.666,65.0439 L70.126,67.5839 C70.028,67.6809 69.9,67.7299 69.772,67.7299 C69.644,67.7299 69.516,67.6809 69.419,67.5839 C69.223,67.3879 69.223,67.0719 69.419,66.8769 L71.959,64.3369 C72.154,64.1409 72.471,64.1409 72.666,64.3369 C72.861,64.5319 72.861,64.8479 72.666,65.0439 Z M72.587,70.0189 L70.02,72.5859 C69.923,72.6829 69.795,72.7319 69.667,72.7319 C69.539,72.7319 69.411,72.6829 69.313,72.5859 C69.118,72.3899 69.118,72.0739 69.313,71.8789 L71.88,69.3119 C72.075,69.1169 72.391,69.1169 72.587,69.3119 C72.782,69.5069 72.782,69.8239 72.587,70.0189 Z M72.445,75.0569 L69.831,77.6709 C69.733,77.7689 69.605,77.8179 69.477,77.8179 C69.349,77.8179 69.222,77.7689 69.124,77.6709 C68.929,77.4759 68.929,77.1599 69.124,76.9639 L71.738,74.3499 C71.933,74.1549 72.25,74.1549 72.445,74.3499 C72.64,74.5459 72.64,74.8619 72.445,75.0569 Z M72.31,80.0889 L70.896,81.5039 C70.799,81.6009 70.671,81.6499 70.543,81.6499 C70.415,81.6499 70.287,81.6009 70.189,81.5039 C69.994,81.3079 69.994,80.9919 70.189,80.7959 L71.603,79.3819 C71.799,79.1869 72.115,79.1869 72.31,79.3819 C72.506,79.5779 72.506,79.8939 72.31,80.0889 Z M67.596,65.0089 C67.468,65.0089 67.34,64.9609 67.242,64.8629 C67.047,64.6679 67.047,64.3509 67.242,64.1559 L70.327,61.0719 C70.522,60.8769 70.839,60.8769 71.034,61.0719 C71.229,61.2669 71.229,61.5839 71.034,61.7789 L67.949,64.8629 C67.851,64.9609 67.723,65.0089 67.596,65.0089 Z M67.586,70.1239 L65.045,72.6649 C64.947,72.7619 64.819,72.8109 64.691,72.8109 C64.563,72.8109 64.435,72.7619 64.338,72.6649 C64.142,72.4689 64.142,72.1529 64.338,71.9579 L66.879,69.4169 C67.074,69.2209 67.39,69.2209 67.586,69.4169 C67.781,69.6119 67.781,69.9279 67.586,70.1239 Z M67.454,75.1519 L64.888,77.7179 C64.79,77.8159 64.662,77.8649 64.534,77.8649 C64.406,77.8649 64.278,77.8159 64.181,77.7179 C63.985,77.5229 63.985,77.2069 64.181,77.0109 L66.747,74.4449 C66.942,74.2499 67.259,74.2499 67.454,74.4449 C67.649,74.6399 67.649,74.9569 67.454,75.1519 Z M67.218,80.2859 L65.804,81.6999 C65.706,81.7969 65.578,81.8459 65.45,81.8459 C65.322,81.8459 65.194,81.7969 65.097,81.6999 C64.901,81.5049 64.901,81.1879 65.097,80.9929 L66.511,79.5789 C66.706,79.3829 67.022,79.3829 67.218,79.5789 C67.413,79.7739 67.413,80.0899 67.218,80.2859 Z M62.505,75.2049 L59.964,77.7459 C59.866,77.8429 59.738,77.8919 59.61,77.8919 C59.482,77.8919 59.354,77.8429 59.257,77.7459 C59.061,77.5499 59.061,77.2339 59.257,77.0389 L61.798,74.4979 C61.993,74.3019 62.309,74.3019 62.505,74.4979 C62.7,74.6929 62.7,75.0089 62.505,75.2049 Z M62.321,80.2859 L60.906,81.6999 C60.808,81.7969 60.681,81.8459 60.553,81.8459 C60.425,81.8459 60.297,81.7969 60.199,81.6999 C60.004,81.5049 60.004,81.1879 60.199,80.9929 L61.614,79.5789 C61.809,79.3829 62.126,79.3829 62.321,79.5789 C62.516,79.7739 62.516,80.0899 62.321,80.2859 Z M58.696,74.1169 L55.611,77.2009 C55.514,77.2979 55.386,77.3469 55.258,77.3469 C55.13,77.3469 55.002,77.2979 54.904,77.2009 C54.709,77.0049 54.709,76.6889 54.904,76.4939 L57.989,73.4099 C58.184,73.2139 58.501,73.2139 58.696,73.4099 C58.891,73.6049 58.891,73.9209 58.696,74.1169 Z M57.424,80.2859 L56.01,81.6999 C55.912,81.7969 55.784,81.8459 55.656,81.8459 C55.528,81.8459 55.4,81.7969 55.303,81.6999 C55.107,81.5049 55.107,81.1879 55.303,80.9929 L56.717,79.5789 C56.912,79.3829 57.228,79.3829 57.424,79.5789 C57.619,79.7739 57.619,80.0899 57.424,80.2859 Z M54.289,68.7299 L51.399,71.6189 C51.302,71.7159 51.174,71.7649 51.046,71.7649 C50.918,71.7649 50.79,71.7159 50.692,71.6189 C50.497,71.4229 50.497,71.1069 50.692,70.9119 L53.582,68.0229 C53.777,67.8279 54.094,67.8279 54.289,68.0229 C54.484,68.2179 54.484,68.5349 54.289,68.7299 Z M53.568,74.3479 L50.599,77.3169 C50.502,77.4149 50.374,77.4629 50.246,77.4629 C50.118,77.4629 49.99,77.4149 49.892,77.3169 C49.697,77.1219 49.697,76.8049 49.892,76.6099 L52.861,73.6409 C53.056,73.4459 53.373,73.4459 53.568,73.6409 C53.764,73.8369 53.764,74.1529 53.568,74.3479 Z M52.527,80.2859 L51.113,81.6999 C51.015,81.7969 50.888,81.8459 50.76,81.8459 C50.632,81.8459 50.504,81.7969 50.406,81.6999 C50.211,81.5049 50.211,81.1879 50.406,80.9929 L51.82,79.5789 C52.015,79.3829 52.332,79.3829 52.527,79.5789 C52.723,79.7739 52.723,80.0899 52.527,80.2859 Z M48.511,74.5069 L45.622,77.3969 C45.524,77.4949 45.396,77.5439 45.268,77.5439 C45.14,77.5439 45.013,77.4949 44.915,77.3969 C44.72,77.2019 44.72,76.8849 44.915,76.6899 L47.804,73.7999 C47.999,73.6049 48.315,73.6049 48.511,73.7999 C48.706,73.9959 48.706,74.3119 48.511,74.5069 Z M47.631,80.2859 L46.216,81.6999 C46.118,81.7969 45.99,81.8459 45.862,81.8459 C45.734,81.8459 45.606,81.7969 45.509,81.6999 C45.313,81.5049 45.313,81.1879 45.509,80.9929 L46.924,79.5789 C47.119,79.3829 47.435,79.3829 47.631,79.5789 C47.826,79.7739 47.826,80.0899 47.631,80.2859 Z M59.506,68.4109 L56.537,71.3789 C56.439,71.4769 56.311,71.5259 56.183,71.5259 C56.056,71.5259 55.928,71.4769 55.83,71.3789 C55.635,71.1839 55.635,70.8679 55.83,70.6719 L58.799,67.7039 C58.994,67.5079 59.31,67.5079 59.506,67.7039 C59.701,67.8989 59.701,68.2149 59.506,68.4109 Z M57.178,65.8409 C57.08,65.9389 56.952,65.9879 56.824,65.9879 C56.696,65.9879 56.568,65.9389 56.471,65.8409 C56.275,65.6459 56.275,65.3299 56.471,65.1339 L59.359,62.2459 C59.555,62.0499 59.871,62.0499 60.066,62.2459 C60.262,62.4409 60.262,62.7569 60.066,62.9529 L57.178,65.8409 Z M62.955,60.0639 C62.857,60.1619 62.729,60.2109 62.601,60.2109 C62.473,60.2109 62.346,60.1619 62.248,60.0639 C62.053,59.8689 62.053,59.5519 62.248,59.3569 L65.137,56.4679 C65.332,56.2729 65.648,56.2729 65.844,56.4679 C66.039,56.6639 66.039,56.9799 65.844,57.1749 L62.955,60.0639 Z M64.865,67.9479 L61.78,71.0319 C61.682,71.1289 61.555,71.1779 61.427,71.1779 C61.299,71.1779 61.171,71.1289 61.073,71.0319 C60.878,70.8369 60.878,70.5199 61.073,70.3249 L64.158,67.2409 C64.353,67.0459 64.67,67.0459 64.865,67.2409 C65.06,67.4359 65.06,67.7529 64.865,67.9479 Z M62.474,65.4419 C62.377,65.5399 62.249,65.5879 62.121,65.5879 C61.993,65.5879 61.865,65.5399 61.767,65.4419 C61.572,65.2469 61.572,64.9299 61.767,64.7349 L64.736,61.7659 C64.931,61.5709 65.248,61.5709 65.443,61.7659 C65.639,61.9619 65.639,62.2779 65.443,62.4729 L62.474,65.4419 Z M71.381,56.5349 L68.412,59.5039 C68.314,59.6009 68.186,59.6499 68.058,59.6499 C67.931,59.6499 67.803,59.6009 67.705,59.5039 C67.51,59.3079 67.51,58.9919 67.705,58.7959 L70.674,55.8279 C70.869,55.6319 71.185,55.6319 71.381,55.8279 C71.576,56.0229 71.576,56.3389 71.381,56.5349 Z M68.732,54.2859 C68.635,54.3829 68.507,54.4319 68.379,54.4319 C68.251,54.4319 68.123,54.3829 68.025,54.2859 C67.83,54.0899 67.83,53.7739 68.025,53.5789 L70.914,50.6899 C71.109,50.4949 71.426,50.4949 71.621,50.6899 C71.816,50.8849 71.816,51.2019 71.621,51.3969 L68.732,54.2859 Z M62.37,16.5459 C67.998,16.5459 72.576,21.1249 72.576,26.7519 C72.576,32.3789 67.998,36.9579 62.37,36.9579 C56.743,36.9579 52.165,32.3789 52.165,26.7519 C52.165,21.1249 56.743,16.5459 62.37,16.5459 Z M73.642,52.8589 L76.611,49.8899 C76.806,49.6949 77.123,49.6949 77.318,49.8899 C77.514,50.0859 77.514,50.4019 77.318,50.5969 L74.349,53.5659 C74.252,53.6639 74.124,53.7129 73.996,53.7129 C73.868,53.7129 73.74,53.6639 73.642,53.5659 C73.447,53.3709 73.447,53.0539 73.642,52.8589 Z M73.803,47.8009 L76.691,44.9129 C76.887,44.7169 77.203,44.7169 77.398,44.9129 C77.594,45.1079 77.594,45.4239 77.398,45.6199 L74.51,48.5079 C74.412,48.6059 74.284,48.6549 74.156,48.6549 C74.028,48.6549 73.9,48.6059 73.803,48.5079 C73.607,48.3129 73.607,47.9969 73.803,47.8009 Z M42.733,80.2859 L41.319,81.6999 C41.222,81.7969 41.094,81.8459 40.966,81.8459 C40.838,81.8459 40.71,81.7969 40.612,81.6999 C40.417,81.5049 40.417,81.1879 40.612,80.9929 L42.026,79.5789 C42.222,79.3829 42.538,79.3829 42.733,79.5789 C42.929,79.7739 42.929,80.0899 42.733,80.2859 Z M83.845,19.2369 C83.314,11.9659 76.723,5.3749 69.444,4.8429 C52.788,3.7169 35.901,3.7199 19.237,4.8439 C11.967,5.3749 5.375,11.9659 4.844,19.2449 C3.719,35.8999 3.719,52.7889 4.845,69.4519 C5.375,76.7219 11.967,83.3139 19.245,83.8449 C27.573,84.4079 35.959,84.6889 44.345,84.6889 C52.73,84.6889 61.116,84.4079 69.444,83.8449 L69.452,83.8439 C76.723,83.3149 83.313,76.7229 83.846,69.4439 C84.971,52.7889 84.971,35.8999 83.845,19.2369 Z M62.37,33.9576 C66.344,33.9576 69.576,30.7256 69.576,26.7516 C69.576,22.7786 66.344,19.5466 62.37,19.5466 C58.397,19.5466 55.165,22.7786 55.165,26.7516 C55.165,30.7256 58.397,33.9576 62.37,33.9576" id="Fill-1" fill="url(#linearGradient-1)"></path>
    </g>
</svg>