<?xml version="1.0" encoding="UTF-8"?>
<svg width="88px" height="88px" viewBox="0 0 88 88" version="1.1" xmlns="http://www.w3.org/2000/svg" xmlns:xlink="http://www.w3.org/1999/xlink">
    <!-- Generator: Sketch 51 (57462) - http://www.bohemiancoding.com/sketch -->
    <title>Device2/devices_icon_plug1_s </title>
    <desc>Created with Sketch.</desc>
    <defs>
        <linearGradient x1="112.960737%" y1="-19.1113281%" x2="-16.6566506%" y2="116.977539%" id="linearGradient-1">
            <stop stop-color="#8AADEC" offset="0%"></stop>
            <stop stop-color="#1E50A0" offset="100%"></stop>
        </linearGradient>
    </defs>
    <g id="Device2/devices_icon_plug1_s-" stroke="none" stroke-width="1" fill="none" fill-rule="evenodd">
        <path d="M59.797,36.318 L67.797,36.318 L67.797,22.604 L59.797,22.604 L59.797,36.318 Z M49.714,65.539 L38.286,65.539 L38.286,55.253 C38.286,52.097 40.844,49.539 44,49.539 C47.156,49.539 49.714,52.097 49.714,55.253 L49.714,65.539 Z M20.203,36.318 L28.203,36.318 L28.203,22.604 L20.203,22.604 L20.203,36.318 Z M76,4 L12,4 C7.582,4 4,7.582 4,12 L4,76 C4,80.418 7.582,84 12,84 L76,84 C80.418,84 84,80.418 84,76 L84,12 C84,7.582 80.418,4 76,4 Z" id="Page-1" fill="url(#linearGradient-1)"></path>
    </g>
</svg>