<?xml version="1.0" encoding="UTF-8"?>
<svg width="88px" height="88px" viewBox="0 0 88 88" version="1.1" xmlns="http://www.w3.org/2000/svg" xmlns:xlink="http://www.w3.org/1999/xlink">
    <!-- Generator: Sketch 51 (57462) - http://www.bohemiancoding.com/sketch -->
    <title>Device2/devices_icon_motion2_s  </title>
    <desc>Created with Sketch.</desc>
    <defs>
        <linearGradient x1="112.960737%" y1="-19.1113281%" x2="-16.6566506%" y2="116.977539%" id="linearGradient-1">
            <stop stop-color="#8AADEC" offset="0%"></stop>
            <stop stop-color="#1E50A0" offset="100%"></stop>
        </linearGradient>
    </defs>
    <g id="Device2/devices_icon_motion2_s--" stroke="none" stroke-width="1" fill="none" fill-rule="evenodd">
        <path d="M12,4 L76,4 C80.418278,4 84,7.581722 84,12 L84,76 C84,80.418278 80.418278,84 76,84 L12,84 C7.581722,84 4,80.418278 4,76 L4,12 C4,7.581722 7.581722,4 12,4 Z M13.6,6 C9.4026359,6 6,9.4026359 6,13.6 L6,74.4 C6,78.5973641 9.4026359,82 13.6,82 L74.4,82 C78.5973641,82 82,78.5973641 82,74.4 L82,13.6 C82,9.4026359 78.5973641,6 74.4,6 L13.6,6 Z M13.6,8 L74.4,8 C77.4927946,8 80,10.5072054 80,13.6 L80,74.4 C80,77.4927946 77.4927946,80 74.4,80 L13.6,80 C10.5072054,80 8,77.4927946 8,74.4 L8,13.6 C8,10.5072054 10.5072054,8 13.6,8 Z" id="Combined-Shape" fill="url(#linearGradient-1)"></path>
    </g>
</svg>