<?xml version="1.0" encoding="UTF-8"?>
<svg width="88px" height="88px" viewBox="0 0 88 88" version="1.1" xmlns="http://www.w3.org/2000/svg" xmlns:xlink="http://www.w3.org/1999/xlink">
    <!-- Generator: Sketch 51 (57462) - http://www.bohemiancoding.com/sketch -->
    <title>Device2/devices_icon_motion3_s  </title>
    <desc>Created with Sketch.</desc>
    <defs>
        <linearGradient x1="112.960737%" y1="-19.1113281%" x2="-16.6566506%" y2="116.977539%" id="linearGradient-1">
            <stop stop-color="#8AADEC" offset="0%"></stop>
            <stop stop-color="#1E50A0" offset="100%"></stop>
        </linearGradient>
    </defs>
    <g id="Device2/devices_icon_motion3_s--" stroke="none" stroke-width="1" fill="none" fill-rule="evenodd">
        <path d="M12,4 L76,4 C80.418278,4 84,7.581722 84,12 L84,76 C84,80.418278 80.418278,84 76,84 L12,84 C7.581722,84 4,80.418278 4,76 L4,12 C4,7.581722 7.581722,4 12,4 Z M44,25.7434954 C45.6568542,25.7434954 47,24.4003496 47,22.7434954 C47,21.0866411 45.6568542,19.7434954 44,19.7434954 C42.3431458,19.7434954 41,21.0866411 41,22.7434954 C41,24.4003496 42.3431458,25.7434954 44,25.7434954 Z M44,57 C51.1797017,57 57,51.1797017 57,44 C57,36.8202983 51.1797017,31 44,31 C36.8202983,31 31,36.8202983 31,44 C31,51.1797017 36.8202983,57 44,57 Z M44,54 C38.4771525,54 34,49.5228475 34,44 C34,38.4771525 38.4771525,34 44,34 C49.5228475,34 54,38.4771525 54,44 C54,49.5228475 49.5228475,54 44,54 Z" id="Combined-Shape" fill="url(#linearGradient-1)"></path>
    </g>
</svg>