<?xml version="1.0" encoding="UTF-8"?>
<svg width="88px" height="88px" viewBox="0 0 88 88" version="1.1" xmlns="http://www.w3.org/2000/svg" xmlns:xlink="http://www.w3.org/1999/xlink">
    <!-- Generator: Sketch 51 (57462) - http://www.bohemiancoding.com/sketch -->
    <title>Device2/devices_icon_motion1_s  </title>
    <desc>Created with Sketch.</desc>
    <defs>
        <linearGradient x1="112.960737%" y1="-19.1113281%" x2="-16.6566506%" y2="116.977539%" id="linearGradient-1">
            <stop stop-color="#8AADEC" offset="0%"></stop>
            <stop stop-color="#1E50A0" offset="100%"></stop>
        </linearGradient>
    </defs>
    <g id="Device2/devices_icon_motion1_s--" stroke="none" stroke-width="1" fill="none" fill-rule="evenodd">
        <path d="M44.0811,54.4928265 C38.2961,54.4928265 33.5901,49.7868265 33.5901,44.0018265 C33.5901,38.2168265 38.2961,33.5108265 44.0811,33.5108265 C49.8661,33.5108265 54.5721,38.2168265 54.5721,44.0018265 C54.5721,49.7868265 49.8661,54.4928265 44.0811,54.4928265 M44.0551,88.0038265 C40.9881,88.0038265 38.0361,86.9668265 35.6151,85.0148265 C34.8661,84.4098265 34.1831,83.7258265 33.5811,82.9798265 L8.9811,52.4678265 C5.0261,47.5628265 5.0261,40.4418265 8.9811,35.5358265 L33.5811,5.02482652 C35.8431,2.21982652 39.0601,0.462826522 42.6431,0.0788265218 C46.2241,-0.306173478 49.7421,0.727826522 52.5471,2.98982652 C53.2961,3.59382652 53.9791,4.27882652 54.5811,5.02482652 L79.1811,35.5358265 C83.1361,40.4418265 83.1361,47.5628265 79.1811,52.4678265 L54.5811,82.9798265 C52.3191,85.7838265 49.1021,87.5408265 45.5191,87.9248265 C45.0291,87.9778265 44.5411,88.0038265 44.0551,88.0038265" id="Fill-1" fill="url(#linearGradient-1)"></path>
    </g>
</svg>