<?xml version="1.0" encoding="UTF-8"?>
<svg width="88px" height="88px" viewBox="0 0 88 88" version="1.1" xmlns="http://www.w3.org/2000/svg" xmlns:xlink="http://www.w3.org/1999/xlink">
    <!-- Generator: Sketch 51 (57462) - http://www.bohemiancoding.com/sketch -->
    <title>Room/room_icon_nursery_2_s</title>
    <desc>Created with Sketch.</desc>
    <defs>
        <linearGradient x1="112.960737%" y1="-19.1113281%" x2="-16.6566506%" y2="116.977539%" id="linearGradient-1">
            <stop stop-color="#8AADEC" offset="0%"></stop>
            <stop stop-color="#1E50A0" offset="100%"></stop>
        </linearGradient>
    </defs>
    <g id="Room/room_icon_nursery_2_s" stroke="none" stroke-width="1" fill="none" fill-rule="evenodd">
        <g id="Group" transform="translate(6.000000, 15.000000)" fill="url(#linearGradient-1)">
            <path d="M33.9951002,0.34179463 C31.2219188,1.83897116 30.1094835,3.640483 31.0201815,5.86875545 C31.7750564,7.71576375 33.0241706,7.92366588 37.2270857,7.94212166 C37.671889,7.94407488 37.8656776,7.94531485 38.1089176,7.94835356 C40.1361019,7.9736784 41.3041282,8.13927681 41.956315,8.52991064 C42.5094696,8.8612281 42.6525833,9.44110958 42.1495815,10.946512 C41.8870458,11.7322388 42.3111759,12.5820234 43.0969027,12.8445591 C43.8826294,13.1070948 44.732414,12.6829647 44.9949497,11.897238 C45.9071154,9.16727443 45.3950991,7.09263772 43.4978337,5.95625172 C42.2297531,5.19672223 40.7050226,4.98055162 38.1463925,4.94858763 C37.8923245,4.94541365 37.6931995,4.94413953 37.2402592,4.94215059 C35.6482388,4.93515973 34.9969959,4.91044748 34.385274,4.8086327 C34.099149,4.76101015 33.892074,4.70133216 33.769074,4.64159578 C33.6126784,3.88115296 35.1688137,2.70267587 39.3836336,1.42580368 C40.0071196,1.23691973 40.4173583,0.678689188 40.4473615,0.063251249 C52.9361495,0.877116206 63.3053184,9.46260474 66.76637,21.0312187 C67.0081659,21.0105481 67.2528511,21 67.5,21 C72.1944204,21 76,24.8055796 76,29.5 C76,34.1944204 72.1944204,38 67.5,38 C67.2528511,38 67.0081659,37.9894519 66.76637,37.9687813 C63.1269259,50.1336748 51.8488835,59 38.5,59 C25.1009196,59 13.788284,50.0668679 10.1928973,37.8314078 C9.64581262,37.941972 9.0796829,38 8.5,38 C3.80557963,38 0,34.1944204 0,29.5 C0,24.8055796 3.80557963,21 8.5,21 C9.0796829,21 9.64581262,21.058028 10.1928973,21.1685922 C13.377281,10.3318161 22.6153816,2.08551735 33.9951002,0.34179463 Z M26,27 C27.6568542,27 29,25.6568542 29,24 C29,22.3431458 27.6568542,21 26,21 C24.3431458,21 23,22.3431458 23,24 C23,25.6568542 24.3431458,27 26,27 Z M50,27 C51.6568542,27 53,25.6568542 53,24 C53,22.3431458 51.6568542,21 50,21 C48.3431458,21 47,22.3431458 47,24 C47,25.6568542 48.3431458,27 50,27 Z M29.0093798,39.9070194 C35.4279541,46.412504 42.2199406,46.412504 48.6385149,39.9070194 C49.2203489,39.317307 49.2139623,38.367581 48.62425,37.785747 C48.0345377,37.2039129 47.0848117,37.2102995 46.5029776,37.8000119 C41.2591534,43.1148398 36.3887413,43.1148398 31.1449171,37.8000119 C30.563083,37.2102995 29.613357,37.2039129 29.0236447,37.785747 C28.4339324,38.367581 28.4275457,39.317307 29.0093798,39.9070194 Z" id="Combined-Shape"></path>
        </g>
    </g>
</svg>