<?xml version="1.0" encoding="UTF-8"?>
<svg width="88px" height="88px" viewBox="0 0 88 88" version="1.1" xmlns="http://www.w3.org/2000/svg" xmlns:xlink="http://www.w3.org/1999/xlink">
    <!-- Generator: Sketch 51 (57462) - http://www.bohemiancoding.com/sketch -->
    <title>Room/room_icon_bedroom_s</title>
    <desc>Created with Sketch.</desc>
    <defs>
        <linearGradient x1="112.960737%" y1="-19.1113281%" x2="-16.6566506%" y2="116.977539%" id="linearGradient-1">
            <stop stop-color="#8AADEC" offset="0%"></stop>
            <stop stop-color="#1E50A0" offset="100%"></stop>
        </linearGradient>
    </defs>
    <g id="Room/room_icon_bedroom_s" stroke="none" stroke-width="1" fill="none" fill-rule="evenodd">
        <path d="M74.4,72.1441 L13.6,72.1441 L13.6,80.1611 L4,80.1611 L4,32.5661 C4,29.9151 6.149,27.7661 8.8,27.7661 C11.451,27.7661 13.6,29.9151 13.6,32.5661 L13.6,60.9441 L84,60.9441 L84,72.1441 L84,80.1611 L74.4,80.1611 L74.4,72.1441 Z M29.973,49.5443 C29.973,53.5203 26.749,56.7443 22.773,56.7443 C18.797,56.7443 15.573,53.5203 15.573,49.5443 C15.573,45.5683 18.797,42.3443 22.773,42.3443 C26.749,42.3443 29.973,45.5683 29.973,49.5443 Z M84,57.8443 L32.986,57.8443 L32.986,45.2443 C32.986,43.0353 34.777,41.2443 36.986,41.2443 L72,41.2443 C78.627,41.2443 84,46.6173 84,53.2443 L84,57.8443 Z M29.973,16.0443 L44.147,16.0443 L44.147,19.3443 L44.121,19.3443 L34.621,28.8443 L44.147,28.8443 L44.147,32.1443 L29.973,32.1443 L29.973,28.8443 L29.992,28.8443 L29.973,28.8253 L39.454,19.3443 L29.973,19.3443 L29.973,16.0443 Z M52.8931,7 L64.0931,7 L64.0931,9.608 L64.0731,9.608 L56.5661,17.114 L64.0931,17.114 L64.0931,19.722 L52.8931,19.722 L52.8931,17.114 L52.9081,17.114 L52.8931,17.099 L60.3851,9.608 L52.8931,9.608 L52.8931,7 Z" id="Combined-Shape" fill="url(#linearGradient-1)"></path>
    </g>
</svg>