<?xml version="1.0" encoding="UTF-8"?>
<svg width="88px" height="88px" viewBox="0 0 88 88" version="1.1" xmlns="http://www.w3.org/2000/svg" xmlns:xlink="http://www.w3.org/1999/xlink">
    <!-- Generator: Sketch 51 (57462) - http://www.bohemiancoding.com/sketch -->
    <title>Room/room_icon_basement_s</title>
    <desc>Created with Sketch.</desc>
    <defs>
        <linearGradient x1="112.960737%" y1="-19.1113281%" x2="-16.6566506%" y2="116.977539%" id="linearGradient-1">
            <stop stop-color="#8AADEC" offset="0%"></stop>
            <stop stop-color="#1E50A0" offset="100%"></stop>
        </linearGradient>
    </defs>
    <g id="Room/room_icon_basement_s" stroke="none" stroke-width="1" fill="none" fill-rule="evenodd">
        <path d="M13,6.79069767 L13,6.79069767 C13,8.33195744 14.2494379,9.58139535 15.7906977,9.58139535 L74.4186047,9.58139535 C76.6277437,9.58139535 78.4186047,11.3722563 78.4186047,13.5813953 L78.4186047,74.4186047 C78.4186047,76.6277437 76.6277437,78.4186047 74.4186047,78.4186047 L60.7237209,78.4186047 L60.7237209,68.3590698 C60.7237209,67.2545003 59.8282904,66.3590698 58.7237209,66.3590698 L45.7395349,66.3590698 L45.7395349,54.6390698 C45.7395349,53.5345003 44.8441044,52.6390698 43.7395349,52.6390698 L27.7190698,52.6390698 L27.7190698,41.0446512 C27.7190698,39.9400817 26.8236393,39.0446512 25.7190698,39.0446512 L9.58139535,39.0446512 L6,39.0446512 C4.8954305,39.0446512 4,39.9400817 4,41.0446512 L4,76 C4,80.418278 7.581722,84 12,84 L76,84 C80.418278,84 84,80.418278 84,76 L84,12 C84,7.581722 80.418278,4 76,4 L15.7906977,4 C14.2494379,4 13,5.24943791 13,6.79069767 Z" id="Page-1" fill="url(#linearGradient-1)"></path>
    </g>
</svg>