<?xml version="1.0" encoding="UTF-8"?>
<svg width="88px" height="88px" viewBox="0 0 88 88" version="1.1" xmlns="http://www.w3.org/2000/svg" xmlns:xlink="http://www.w3.org/1999/xlink">
    <!-- Generator: Sketch 51 (57462) - http://www.bohemiancoding.com/sketch -->
    <title>Room/room_icon_toolhouse_s</title>
    <desc>Created with Sketch.</desc>
    <defs>
        <linearGradient x1="112.960737%" y1="-19.1113281%" x2="-16.6566506%" y2="116.977539%" id="linearGradient-1">
            <stop stop-color="#8AADEC" offset="0%"></stop>
            <stop stop-color="#1E50A0" offset="100%"></stop>
        </linearGradient>
    </defs>
    <g id="Room/room_icon_toolhouse_s" stroke="none" stroke-width="1" fill="none" fill-rule="evenodd">
        <path d="M45.4892244,23.1967798 L78.5683173,49.0409996 L74.3368118,54.4570797 L41.2577189,28.6128599 L35.0544161,36.5527255 L28.4347626,31.3808854 L39.0903519,18.1176095 L52.4506054,14.2866184 L45.4892244,23.1967798 Z M15.5,67.5666457 L15.5,58.0666457 L12,58.0666457 C11.1715729,58.0666457 10.5,57.3950728 10.5,56.5666457 C10.5,55.7382186 11.1715729,55.0666457 12,55.0666457 L21.4697122,55.0666457 C22.2981393,55.0666457 22.9697122,55.7382186 22.9697122,56.5666457 C22.9697122,57.3950728 22.2981393,58.0666457 21.4697122,58.0666457 L18.5,58.0666457 L18.5,67.5666457 L74,67.5666457 C76.209139,67.5666457 78,69.3575067 78,71.5666457 C78,73.7757847 76.209139,75.5666457 74,75.5666457 L10,75.5666457 C7.790861,75.5666457 6,73.7757847 6,71.5666457 C6,69.3575067 7.790861,67.5666457 10,67.5666457 L15.5,67.5666457 Z" id="Combined-Shape" fill="url(#linearGradient-1)"></path>
    </g>
</svg>