<?xml version="1.0" encoding="UTF-8"?>
<svg width="88px" height="88px" viewBox="0 0 88 88" version="1.1" xmlns="http://www.w3.org/2000/svg" xmlns:xlink="http://www.w3.org/1999/xlink">
    <!-- Generator: Sketch 51 (57462) - http://www.bohemiancoding.com/sketch -->
    <title>Room/room_icon_front_2_s</title>
    <desc>Created with Sketch.</desc>
    <defs>
        <linearGradient x1="112.960737%" y1="-19.1113281%" x2="-16.6566506%" y2="116.977539%" id="linearGradient-1">
            <stop stop-color="#8AADEC" offset="0%"></stop>
            <stop stop-color="#1E50A0" offset="100%"></stop>
        </linearGradient>
    </defs>
    <g id="Room/room_icon_front_2_s" stroke="none" stroke-width="1" fill="none" fill-rule="evenodd">
        <path d="M57.8460299,77 C57.2958196,79.1635745 55.3347958,80.7638825 53,80.7638825 C52.7978387,80.7638825 52.5958634,80.7516218 52.3951866,80.7271678 L26.3951866,77.5588733 C23.8862309,77.2531383 22,75.1231031 22,72.5955881 L22,72 L22,14 C22,11.2385763 24.2385763,9 27,9 L64,9 C66.7614237,9 69,11.2385763 69,14 L69,72 C69,74.7614237 66.7614237,77 64,77 L57.8460299,77 Z M45.9683151,12 L53.6173758,12.9517521 C56.120762,13.2632418 58,15.3907997 58,17.9134904 L58,74 L64,74 C65.1045695,74 66,73.1045695 66,72 L66,14 C66,12.8954305 65.1045695,12 64,12 L45.9683151,12 Z M50.5,44.5 C52.1568542,44.5 53.5,43.1568542 53.5,41.5 C53.5,39.8431458 52.1568542,38.5 50.5,38.5 C48.8431458,38.5 47.5,39.8431458 47.5,41.5 C47.5,43.1568542 48.8431458,44.5 50.5,44.5 Z" id="Combined-Shape" fill="url(#linearGradient-1)"></path>
    </g>
</svg>