<?xml version="1.0" encoding="UTF-8"?>
<svg width="88px" height="88px" viewBox="0 0 88 88" version="1.1" xmlns="http://www.w3.org/2000/svg" xmlns:xlink="http://www.w3.org/1999/xlink">
    <!-- Generator: Sketch 51 (57462) - http://www.bohemiancoding.com/sketch -->
    <title>Room/room_icon_living_room_s </title>
    <desc>Created with Sketch.</desc>
    <defs>
        <linearGradient x1="112.960737%" y1="-19.1113281%" x2="-16.6566506%" y2="116.977539%" id="linearGradient-1">
            <stop stop-color="#8AADEC" offset="0%"></stop>
            <stop stop-color="#1E50A0" offset="100%"></stop>
        </linearGradient>
    </defs>
    <g id="Room/room_icon_living_room_s-" stroke="none" stroke-width="1" fill="none" fill-rule="evenodd">
        <g id="Page-1" transform="translate(2.000000, 14.000000)">
            <g id="Group-3" transform="translate(0.000000, -0.000400)"></g>
        </g>
        <path d="M71.042,42.068 L71.042,38.999 C71.042,35.018 74.187,31.77 78.042,31.77 L78.527,31.77 L78.527,22.629 C78.527,17.87 74.779,14 70.17,14 L17.831,14 C13.222,14 9.474,17.87 9.474,22.629 L9.474,31.77 L9.948,31.77 C13.814,31.77 16.948,35.018 16.948,38.999 L16.948,42.068 L66.196,42.068 L71.042,42.068 Z M78.7251,66.502 L78.7251,71.1263 C78.7251,72.7103 77.4771,73.9993 75.9431,73.9993 L75.4431,73.9993 C73.9091,73.9993 72.6611,72.7103 72.6611,71.1263 L72.6611,66.5183 L15.338,66.5183 L15.338,71.1263 C15.338,72.7103 14.09,73.9993 12.556,73.9993 L12.056,73.9993 C10.522,73.9993 9.274,72.7103 9.274,71.1263 L9.274,66.502 L5.769,66.502 C3.691,66.502 2,64.755 2,62.609 L2,39.002 C2,36.856 3.691,35.11 5.769,35.11 L9.953,35.11 C12.032,35.11 13.723,36.856 13.723,39.002 L13.723,45.4043 L74.277,45.4043 L74.277,39.002 C74.277,36.856 75.968,35.11 78.046,35.11 L82.23,35.11 C84.309,35.11 86,36.856 86,39.002 L86,62.609 C86,64.755 84.309,66.502 82.23,66.502 L78.7251,66.502 Z" id="Combined-Shape" fill="url(#linearGradient-1)"></path>
    </g>
</svg>