<?xml version="1.0" encoding="UTF-8"?>
<svg width="88px" height="88px" viewBox="0 0 88 88" version="1.1" xmlns="http://www.w3.org/2000/svg" xmlns:xlink="http://www.w3.org/1999/xlink">
    <!-- Generator: Sketch 51 (57462) - http://www.bohemiancoding.com/sketch -->
    <title>Room/room_icon_ kitchen_s </title>
    <desc>Created with Sketch.</desc>
    <defs>
        <linearGradient x1="112.960737%" y1="-19.1113281%" x2="-16.6566506%" y2="116.977539%" id="linearGradient-1">
            <stop stop-color="#8AADEC" offset="0%"></stop>
            <stop stop-color="#1E50A0" offset="100%"></stop>
        </linearGradient>
    </defs>
    <g id="Room/room_icon_-kitchen_s-" stroke="none" stroke-width="1" fill="none" fill-rule="evenodd">
        <path d="M77.8072143,31.4884762 C76.1107619,31.4884762 74.7357857,30.1135 74.7357857,28.4170476 C74.7357857,26.7205952 76.1107619,25.345619 77.8072143,25.345619 C79.5036667,25.345619 80.8786429,26.7205952 80.8786429,28.4170476 C80.8786429,30.1135 79.5036667,31.4884762 77.8072143,31.4884762 Z M77.8072143,44.7857143 C76.1107619,44.7857143 74.7357857,43.4107381 74.7357857,41.7142857 C74.7357857,40.0178333 76.1107619,38.6428571 77.8072143,38.6428571 C79.5036667,38.6428571 80.8786429,40.0178333 80.8786429,41.7142857 C80.8786429,43.4107381 79.5036667,44.7857143 77.8072143,44.7857143 Z M77.8072143,58.0839762 C76.1107619,58.0839762 74.7357857,56.709 74.7357857,55.0125476 C74.7357857,53.3160952 76.1107619,51.941119 77.8072143,51.941119 C79.5036667,51.941119 80.8786429,53.3160952 80.8786429,55.0125476 C80.8786429,56.709 79.5036667,58.0839762 77.8072143,58.0839762 Z M10.0422857,63.1815238 L69.8368571,63.1815238 L69.8368571,20.2470476 L10.0422857,20.2470476 L10.0422857,63.1815238 Z M65.3538,72.4285714 L22.6451762,72.4285714 L22.6451762,74.5490857 C22.6451762,75.6803952 21.7288667,76.5967048 20.5975571,76.5967048 L13.6868429,76.5967048 C12.5555333,76.5967048 11.6392238,75.6803952 11.6392238,74.5490857 L11.6392238,72.4285714 L9.19047619,72.4285714 C4.6662619,72.4285714 1,68.7623095 1,64.2380952 L1,19.1904762 C1,14.6672857 4.6662619,11 9.19047619,11 L78.8095238,11 C83.3327143,11 87,14.6672857 87,19.1904762 L87,64.2380952 C87,68.7623095 83.3327143,72.4285714 78.8095238,72.4285714 L76.3597524,72.4285714 L76.3597524,74.5490857 C76.3597524,75.6803952 75.4434429,76.5967048 74.3121333,76.5967048 L67.401419,76.5967048 C66.2701095,76.5967048 65.3538,75.6803952 65.3538,74.5490857 L65.3538,72.4285714 Z M18.3063738,39.8161429 C17.6705881,39.8161429 17.0757548,39.417881 16.8556357,38.7841429 C16.5781833,37.9825 17.0020405,37.1071429 17.8026595,36.8296905 C19.289231,36.3136905 20.4809452,35.8017857 21.632731,35.3072857 C24.6724214,34.0039762 27.2964452,32.8777857 32.8895167,32.8777857 C36.5465643,32.8777857 38.5931595,33.784881 40.3776595,34.7145 C40.9571357,35.0165238 41.6226119,35.2970476 42.3546357,35.547881 C46.4990167,36.9679048 51.1727071,36.8204762 55.5146833,35.1270952 L61.0156119,32.9832381 C61.8029214,32.6760952 62.6956833,33.0651429 63.00385,33.8555238 C63.3120167,34.6459048 62.9209214,35.536619 62.1315643,35.8447857 L56.6306357,37.9886429 C51.6129452,39.9451429 46.1898262,40.111 41.3605167,38.4534524 C40.4820881,38.1524524 39.6743024,37.8115238 38.9576357,37.4378333 C37.3953024,36.622881 35.8595881,35.9492143 32.8895167,35.9492143 C27.9271119,35.9492143 25.7945167,36.8645 22.8438976,38.1299286 C21.6982548,38.6213571 20.4000643,39.1783095 18.8100881,39.7311667 C18.6432071,39.7885 18.4732548,39.8161429 18.3063738,39.8161429 M18.3063738,50.5521167 C17.6705881,50.5521167 17.0757548,50.1538548 16.8556357,49.5201167 C16.5781833,48.7184738 17.0020405,47.8431167 17.8026595,47.5656643 C19.2882071,47.0496643 20.4799214,46.5377595 21.632731,46.0432595 C24.6713976,44.73995 27.2954214,43.6137595 32.8895167,43.6137595 C36.5475881,43.6137595 38.5941833,44.5208548 40.3776595,45.4504738 C40.9581595,45.7524976 41.6226119,46.0319976 42.3546357,46.2838548 C46.4990167,47.7038786 51.1727071,47.55645 55.5146833,45.863069 L61.0156119,43.7181881 C61.8029214,43.412069 62.6956833,43.8011167 63.00385,44.5914976 C63.3120167,45.3818786 62.9209214,46.271569 62.1315643,46.5797357 L56.6306357,48.7246167 C51.6129452,50.6811167 46.1898262,50.8469738 41.3605167,49.1884024 C40.4831119,48.8884262 39.6753262,48.5474976 38.9586595,48.1738071 C37.3953024,47.3588548 35.8606119,46.6851881 32.8895167,46.6851881 C27.9271119,46.6851881 25.7945167,47.59945 22.8438976,48.8659024 C21.6982548,49.357331 20.3990405,49.9142833 18.8100881,50.4671405 C18.6432071,50.5244738 18.4732548,50.5521167 18.3063738,50.5521167" id="Combined-Shape" fill="url(#linearGradient-1)"></path>
    </g>
</svg>