<?xml version="1.0" encoding="UTF-8"?>
<svg width="88px" height="88px" viewBox="0 0 88 88" version="1.1" xmlns="http://www.w3.org/2000/svg" xmlns:xlink="http://www.w3.org/1999/xlink">
    <!-- Generator: Sketch 51 (57462) - http://www.bohemiancoding.com/sketch -->
    <title>Room/room_icon_game_2_s</title>
    <desc>Created with Sketch.</desc>
    <defs>
        <linearGradient x1="112.960737%" y1="-19.1113281%" x2="-16.6566506%" y2="116.977539%" id="linearGradient-1">
            <stop stop-color="#8AADEC" offset="0%"></stop>
            <stop stop-color="#1E50A0" offset="100%"></stop>
        </linearGradient>
    </defs>
    <g id="Room/room_icon_game_2_s" stroke="none" stroke-width="1" fill="none" fill-rule="evenodd">
        <path d="M41.5156773,30 C41.3764229,29.7869394 41.289586,29.5355319 41.274538,29.2631206 C41.1160829,26.3946477 42.2751514,24.4541631 44.5279956,23.5352727 C46.0699166,22.9063538 47.73624,22.7904895 50.7313149,22.8863962 C50.9096412,22.8921065 51.0619762,22.8973189 51.3646457,22.9079167 C55.3120108,23.0461324 56.6630392,22.8210898 56.9927536,22.033208 C57.6868335,20.3746427 53.4447211,18.1846071 43.2002319,16.3885648 C42.3842501,16.2455086 41.8387361,15.4680546 41.9817923,14.6520727 C42.1248485,13.8360908 42.9023025,13.2905768 43.7182844,13.433633 C56.0072661,15.5881115 61.7099653,18.5321905 59.7601974,23.1913336 C59.1341425,24.6873471 57.8092823,25.4804061 55.9659342,25.787455 C54.7750662,25.9858194 53.7505632,25.9932973 51.259666,25.9060794 C50.9598978,25.8955831 50.8097182,25.8904444 50.6352998,25.8848593 C48.0650214,25.8025552 46.6758805,25.8991462 45.6610124,26.3130907 C44.6230003,26.7364753 44.1804657,27.477356 44.2699712,29.0976522 C44.2882921,29.4293114 44.1974193,29.741747 44.0286516,30 L73,30 C77.418278,30 81,33.581722 81,38 L81,60 C81,64.418278 77.418278,68 73,68 L14,68 C9.581722,68 6,64.418278 6,60 L6,38 C6,33.581722 9.581722,30 14,30 L41.5156773,30 Z M23.4411765,46.4411765 L16,46.4411765 C15.1715729,46.4411765 14.5,47.1127493 14.5,47.9411765 C14.5,48.7696036 15.1715729,49.4411765 16,49.4411765 L23.4411765,49.4411765 L23.4411765,57.4411765 C23.4411765,58.2696036 24.1127493,58.9411765 24.9411765,58.9411765 C25.7696036,58.9411765 26.4411765,58.2696036 26.4411765,57.4411765 L26.4411765,49.4411765 L34.4411765,49.4411765 C35.2696036,49.4411765 35.9411765,48.7696036 35.9411765,47.9411765 C35.9411765,47.1127493 35.2696036,46.4411765 34.4411765,46.4411765 L26.4411765,46.4411765 L26.4411765,39 C26.4411765,38.1715729 25.7696036,37.5 24.9411765,37.5 C24.1127493,37.5 23.4411765,38.1715729 23.4411765,39 L23.4411765,46.4411765 Z M64,57.5 C68.6944204,57.5 72.5,53.6944204 72.5,49 C72.5,44.3055796 68.6944204,40.5 64,40.5 C59.3055796,40.5 55.5,44.3055796 55.5,49 C55.5,53.6944204 59.3055796,57.5 64,57.5 Z M64,54.5 C60.9624339,54.5 58.5,52.0375661 58.5,49 C58.5,45.9624339 60.9624339,43.5 64,43.5 C67.0375661,43.5 69.5,45.9624339 69.5,49 C69.5,52.0375661 67.0375661,54.5 64,54.5 Z" id="Combined-Shape" fill="url(#linearGradient-1)"></path>
    </g>
</svg>