<?xml version="1.0" encoding="UTF-8"?>
<svg width="88px" height="88px" viewBox="0 0 88 88" version="1.1" xmlns="http://www.w3.org/2000/svg" xmlns:xlink="http://www.w3.org/1999/xlink">
    <!-- Generator: Sketch 51 (57462) - http://www.bohemiancoding.com/sketch -->
    <title>Room/room_icon_garden_2_s</title>
    <desc>Created with Sketch.</desc>
    <defs>
        <linearGradient x1="112.960737%" y1="-19.1113281%" x2="-16.6566506%" y2="116.977539%" id="linearGradient-1">
            <stop stop-color="#8AADEC" offset="0%"></stop>
            <stop stop-color="#1E50A0" offset="100%"></stop>
        </linearGradient>
    </defs>
    <g id="Room/room_icon_garden_2_s" stroke="none" stroke-width="1" fill="none" fill-rule="evenodd">
        <path d="M52,60.0870333 L72.3410068,44.220934 L70.458211,42.5842445 C69.7592866,41.9766788 69.6852258,40.9175594 70.2927914,40.218635 C70.9003571,39.5197107 71.9594766,39.4456498 72.6584009,40.0532155 L79.4078116,45.9203887 C80.106736,46.5279544 80.1807968,47.5870738 79.5732312,48.2859982 C78.9656655,48.9849226 77.906546,49.0589834 77.2076217,48.4514177 L75.2910321,46.7853518 L52,68.9267912 L52,71 C52,73.7614237 49.7614237,76 47,76 L13,76 C10.2385763,76 8,73.7614237 8,71 L8,29 C8,26.2385763 10.2385763,24 13,24 L14.0129321,24 C14.0043462,23.8344194 14,23.6677173 14,23.5 C14,18.2532949 18.2532949,14 23.5,14 L36.5,14 C41.7467051,14 46,18.2532949 46,23.5 C46,23.6677173 45.9956538,23.8344194 45.9870679,24 L47,24 C49.7614237,24 52,26.2385763 52,29 L52,60.0870333 Z M42.9810552,24 C42.9936085,23.8349792 43,23.668236 43,23.5 C43,19.9101491 40.0898509,17 36.5,17 L23.5,17 C19.9101491,17 17,19.9101491 17,23.5 C17,23.668236 17.0063915,23.8349792 17.0189448,24 L42.9810552,24 Z" id="Combined-Shape" fill="url(#linearGradient-1)"></path>
    </g>
</svg>