<?xml version="1.0" encoding="UTF-8"?>
<svg width="88px" height="88px" viewBox="0 0 88 88" version="1.1" xmlns="http://www.w3.org/2000/svg" xmlns:xlink="http://www.w3.org/1999/xlink">
    <!-- Generator: Sketch 51 (57462) - http://www.bohemiancoding.com/sketch -->
    <title>Room/room_icon_balcony_s</title>
    <desc>Created with Sketch.</desc>
    <defs>
        <linearGradient x1="112.960737%" y1="-19.1113281%" x2="-16.6566506%" y2="116.977539%" id="linearGradient-1">
            <stop stop-color="#8AADEC" offset="0%"></stop>
            <stop stop-color="#1E50A0" offset="100%"></stop>
        </linearGradient>
    </defs>
    <g id="Room/room_icon_balcony_s" stroke="none" stroke-width="1" fill="none" fill-rule="evenodd">
        <path d="M65.2774247,19.0855342 L48.3242192,19.0855342 C47.3799452,19.0855342 46.6147397,18.3203288 46.6147397,17.3760548 C46.6147397,16.4317808 47.3799452,15.6655342 48.3242192,15.6655342 L65.2774247,15.6655342 C66.2216986,15.6655342 66.9869041,16.4317808 66.9869041,17.3760548 C66.9869041,18.3203288 66.2216986,19.0855342 65.2774247,19.0855342 M27.2930411,19.0855342 C26.3487671,19.0855342 25.5835616,18.3203288 25.5835616,17.3760548 C25.5835616,16.4317808 26.3487671,15.6655342 27.2930411,15.6655342 C28.2373151,15.6655342 29.0025205,16.4317808 29.0025205,17.3760548 C29.0025205,18.3203288 28.2373151,19.0855342 27.2930411,19.0855342 M19.9481096,19.0855342 C19.0038356,19.0855342 18.2386301,18.3203288 18.2386301,17.3760548 C18.2386301,16.4317808 19.0038356,15.6655342 19.9481096,15.6655342 C20.8923836,15.6655342 21.6586301,16.4317808 21.6586301,17.3760548 C21.6586301,18.3203288 20.8923836,19.0855342 19.9481096,19.0855342 M68.0436164,78.0213479 L20.0445151,78.0213479 L20.0445151,79.6636767 C20.0445151,80.8130466 19.1116932,81.7458685 17.9623233,81.7458685 C16.8129534,81.7458685 15.8801315,80.8130466 15.8801315,79.6636767 L15.8801315,78.0213479 L11.5594795,78.0213479 C9.04106849,78.0213479 7.00052055,75.9797589 7.00052055,73.4613479 L7.00052055,29.4656767 L81.0869863,29.4656767 L81.0869863,73.4613479 C81.0869863,75.9797589 79.0464384,78.0213479 76.5280274,78.0213479 L72.208,78.0213479 L72.208,79.9178082 C72.208,81.0671781 71.2751781,82 70.1258082,82 C68.9764384,82 68.0436164,81.0671781 68.0436164,79.9178082 L68.0436164,78.0213479 Z M76.5275068,6 C79.0459178,6 81.0875068,8.04158904 81.0875068,10.5589589 L81.0875068,25.3945753 L7,25.3945753 L7,10.5589589 C7,8.04158904 9.04158904,6 11.56,6 L76.5275068,6 Z M44.0437534,71.8018411 C54.4474247,71.8018411 62.8823836,63.3679233 62.8823836,52.963211 C62.8823836,42.5595397 54.4474247,34.1256219 44.0437534,34.1256219 C33.6400822,34.1256219 25.2051233,42.5595397 25.2051233,52.963211 C25.2051233,63.3679233 33.6400822,71.8018411 44.0437534,71.8018411 Z M58.861463,52.9636274 C58.861463,61.1476822 52.2276,67.7815452 44.0435452,67.7815452 C35.8605315,67.7815452 29.2256274,61.1476822 29.2256274,52.9636274 C29.2256274,44.7795726 35.8605315,38.1457096 44.0435452,38.1457096 C52.2276,38.1457096 58.861463,44.7795726 58.861463,52.9636274 Z" id="Combined-Shape" fill="url(#linearGradient-1)"></path>
    </g>
</svg>