<?xml version="1.0" encoding="UTF-8"?>
<svg width="88px" height="88px" viewBox="0 0 88 88" version="1.1" xmlns="http://www.w3.org/2000/svg" xmlns:xlink="http://www.w3.org/1999/xlink">
    <!-- Generator: Sketch 51 (57462) - http://www.bohemiancoding.com/sketch -->
    <title>Room/room_icon_dinning_room_s</title>
    <desc>Created with Sketch.</desc>
    <defs>
        <linearGradient x1="112.960737%" y1="-19.1113281%" x2="-16.6566506%" y2="116.977539%" id="linearGradient-1">
            <stop stop-color="#8AADEC" offset="0%"></stop>
            <stop stop-color="#1E50A0" offset="100%"></stop>
        </linearGradient>
    </defs>
    <g id="Room/room_icon_dinning_room_s" stroke="none" stroke-width="1" fill="none" fill-rule="evenodd">
        <path d="M74.1231792,40.7712392 C74.1227024,40.7538756 74.1224625,40.7364531 74.1224625,40.7189749 L74.1224625,17.8684613 C74.1224625,16.8364564 74.9589189,16 75.9919476,16 C82.0621432,16 87,20.9378568 87,27.0090762 L87,40.7189749 C87,41.7509798 86.1635436,42.5884599 85.1315387,42.5884599 L77.8601017,42.5884599 L77.8601017,68.140103 C77.8601017,69.1710841 77.0236454,70.0085643 75.9916404,70.0085643 C74.9596355,70.0085643 74.1231792,69.1710841 74.1231792,68.140103 L74.1231792,40.7712392 Z M7.85546122,37.8201461 C3.93954519,36.9812232 1,33.5619938 1,29.4836356 L1,20.153615 C1,19.1216101 1.83645636,18.2841299 2.86846128,18.2841299 C3.90149001,18.2841299 4.73794637,19.1216101 4.73794637,20.153615 L4.73794637,29.4836356 C4.73794637,31.4930607 6.02894625,33.2175672 7.85546122,33.9299675 L7.85546122,20.1528983 C7.85546122,19.1219172 8.69191758,18.2844371 9.72392249,18.2844371 C10.7559274,18.2844371 11.5923838,19.1219172 11.5923838,20.1528983 L11.5923838,33.9299675 C13.4188987,33.2175672 14.7098986,31.4930607 14.7098986,29.4836356 L14.7098986,20.153615 C14.7098986,19.1216101 15.546355,18.2841299 16.5793837,18.2841299 C17.6113886,18.2841299 18.447845,19.1216101 18.447845,20.153615 L18.447845,29.4836356 C18.447845,33.5619938 15.5082998,36.9812232 11.5923838,37.8201461 L11.5923838,68.140103 C11.5923838,69.1710841 10.7559274,70.0085643 9.72392249,70.0085643 C8.69191758,70.0085643 7.85546122,69.1710841 7.85546122,68.140103 L7.85546122,37.8201461 Z M44.0002048,18.7006176 C58.661227,18.7006176 70.5886647,30.6280554 70.5886647,45.2890776 C70.5886647,59.9490759 58.661227,71.8775375 44.0002048,71.8775375 C29.3391826,71.8775375 17.4117448,59.9490759 17.4117448,45.2890776 C17.4117448,30.6280554 29.3391826,18.7006176 44.0002048,18.7006176 Z M44.0002048,61.6977509 C53.0486764,61.6977509 60.4088781,54.3375492 60.4088781,45.2890776 C60.4088781,36.2406059 53.0486764,28.8804042 44.0002048,28.8804042 C34.9517331,28.8804042 27.5915314,36.2406059 27.5915314,45.2890776 C27.5915314,54.3375492 34.9517331,61.6977509 44.0002048,61.6977509 Z M44.0002048,56.7146415 C37.6904366,56.7146415 32.5744361,51.5996648 32.5744361,45.2888728 C32.5744361,38.9791047 37.6904366,33.8641279 44.0002048,33.8641279 C50.3099729,33.8641279 55.4259735,38.9791047 55.4259735,45.2888728 C55.4259735,51.5996648 50.3099729,56.7146415 44.0002048,56.7146415 Z" id="Combined-Shape" fill="url(#linearGradient-1)"></path>
    </g>
</svg>