<?xml version="1.0" encoding="UTF-8"?>
<svg width="88px" height="88px" viewBox="0 0 88 88" version="1.1" xmlns="http://www.w3.org/2000/svg" xmlns:xlink="http://www.w3.org/1999/xlink">
    <!-- Generator: Sketch 51 (57462) - http://www.bohemiancoding.com/sketch -->
    <title>Room/room_icon_fault_s </title>
    <desc>Created with Sketch.</desc>
    <defs>
        <linearGradient x1="112.960737%" y1="-19.1113281%" x2="-16.6566506%" y2="116.977539%" id="linearGradient-1">
            <stop stop-color="#8AADEC" offset="0%"></stop>
            <stop stop-color="#1E50A0" offset="100%"></stop>
        </linearGradient>
    </defs>
    <g id="Room/room_icon_fault_s-" stroke="none" stroke-width="1" fill="none" fill-rule="evenodd">
        <path d="M53.353,48.8555 C52.882,49.8415 51.95,50.9975 50.502,52.3865 C49.192,53.6465 48.319,54.5425 47.91,55.0515 C47.553,55.4945 47.277,56.0395 47.088,56.6705 C46.892,57.3305 46.805,58.2555 46.831,59.4235 L46.852,60.4455 L41.31,60.4455 L41.31,59.4455 C41.31,57.8495 41.439,56.5935 41.705,55.6055 C41.975,54.5985 42.391,53.7025 42.939,52.9405 C43.451,52.2295 44.332,51.2315 45.632,49.8885 C47.124,48.3485 47.699,47.5995 47.917,47.2425 C48.097,46.9505 48.31,46.3505 48.31,45.1455 C48.31,44.2395 47.992,43.4535 47.335,42.7445 C46.701,42.0585 45.764,41.7245 44.47,41.7245 C42.458,41.7245 40.15,42.3295 40.15,47.0445 L40.15,48.0445 L34.602,48.0445 L34.63,47.0175 C34.687,44.9625 34.933,43.4175 35.381,42.2935 C35.838,41.1525 36.573,40.1255 37.564,39.2395 C38.539,38.3695 39.642,37.7155 40.843,37.2995 C42.026,36.8915 43.287,36.6845 44.59,36.6845 C47.256,36.6845 49.518,37.4895 51.312,39.0765 C53.142,40.6945 54.07,42.8645 54.07,45.5255 C54.07,46.7385 53.829,47.8585 53.353,48.8555 Z M41.23,68.7645 L47.11,68.7645 L47.11,62.6845 L41.23,62.6845 L41.23,68.7645 Z M19.951,29.1276838 L19.951,15.3003 L27.951,15.3003 L27.951,22.0935138 L41.709,9.9965 C43.219,8.6675 45.481,8.6675 46.991,9.9965 L85.359,43.7315 C86.051,44.3405 85.621,45.4825 84.698,45.4825 L77.46,45.4825 L77.46,79.4485 L11.24,79.4485 L11.24,45.4825 L4.002,45.4825 C3.08,45.4825 2.649,44.3405 3.342,43.7315 L19.951,29.1276838 Z" id="Fill-2" fill="url(#linearGradient-1)"></path>
    </g>
</svg>