<?xml version="1.0" encoding="UTF-8"?>
<svg width="88px" height="88px" viewBox="0 0 88 88" version="1.1" xmlns="http://www.w3.org/2000/svg" xmlns:xlink="http://www.w3.org/1999/xlink">
    <!-- Generator: Sketch 51 (57462) - http://www.bohemiancoding.com/sketch -->
    <title>Room/room_icon_bathroom_s</title>
    <desc>Created with Sketch.</desc>
    <defs>
        <linearGradient x1="112.960737%" y1="-19.1113281%" x2="-16.6566506%" y2="116.977539%" id="linearGradient-1">
            <stop stop-color="#8AADEC" offset="0%"></stop>
            <stop stop-color="#1E50A0" offset="100%"></stop>
        </linearGradient>
    </defs>
    <g id="Room/room_icon_bathroom_s" stroke="none" stroke-width="1" fill="none" fill-rule="evenodd">
        <g id="Page-1" transform="translate(1.000000, 7.000000)" fill="url(#linearGradient-1)">
            <path d="M29.0874,6.92965811 C30.1795268,7.19742342 31.1808808,7.75817341 31.9961,8.5727 C33.1801,9.7567 33.8311,11.3257 33.8311,12.9927 L33.8311,16.3327 L21.3451,16.3327 L21.3451,12.9927 C21.3451,10.0677284 23.3670928,7.60564869 26.0874,6.93198044 L26.0874,6.27238115 C26.0874,4.47596637 24.6324,3.01411877 22.8444,3.01411877 L18.1014,3.01411877 C16.3134,3.01411877 14.8584,4.47596637 14.8584,6.27238115 L14.8584,37.8739 L82.5,37.8739 C84.43,37.8739 86,39.0904827 86,40.5860271 L86,41.1617729 C86,42.6573173 84.43,43.8739 82.5,43.8739 L81.2568,43.8739 L81.2568,58.3707118 C81.2568,63.1782518 77.4666236,67.1410379 72.642,67.5769949 L72.642,71.9448 C72.642,73.0498 71.747,73.9448 70.642,73.9448 L69.899,73.9448 C68.795,73.9448 67.899,73.0498 67.899,71.9448 L67.899,67.6168 L18.1015,67.6168 L18.1015,71.9448 C18.1015,73.0498 17.2065,73.9448 16.1015,73.9448 L15.3585,73.9448 C14.2545,73.9448 13.3585,73.0498 13.3585,71.9448 L13.3585,67.5770762 C8.53344772,67.1415307 4.7428,63.1785507 4.7428,58.3707118 L4.7428,43.8739 L3.5,43.8739 C1.57,43.8739 0,42.6573173 0,41.1617729 L0,40.5860271 C0,39.0904827 1.57,37.8739 3.5,37.8739 L11.8584,37.8739 L11.8584,6.27238115 C11.8584,2.81418222 14.6594,0 18.1014,0 L22.8444,0 C26.2874,0 29.0874,2.81418222 29.0874,6.27238115 L29.0874,6.92965811 Z" id="Combined-Shape"></path>
        </g>
    </g>
</svg>