<?xml version="1.0" encoding="UTF-8"?>
<svg width="88px" height="88px" viewBox="0 0 88 88" version="1.1" xmlns="http://www.w3.org/2000/svg" xmlns:xlink="http://www.w3.org/1999/xlink">
    <!-- Generator: Sketch 51 (57462) - http://www.bohemiancoding.com/sketch -->
    <title>Room/room_icon_outside_s</title>
    <desc>Created with Sketch.</desc>
    <defs>
        <linearGradient x1="112.960737%" y1="-19.1113281%" x2="-16.6566506%" y2="116.977539%" id="linearGradient-1">
            <stop stop-color="#8AADEC" offset="0%"></stop>
            <stop stop-color="#1E50A0" offset="100%"></stop>
        </linearGradient>
    </defs>
    <g id="Room/room_icon_outside_s" stroke="none" stroke-width="1" fill="none" fill-rule="evenodd">
        <g id="Page-1" transform="translate(3.000000, 12.000000)"></g>
        <path d="M15.8675,35.191 L72.2315,35.191 L70.3415,24.518 C69.4685,19.582 65.1955,16 60.1815,16 L27.9175,16 C22.9045,16 18.6325,19.583 17.7585,24.518 L15.8675,35.191 Z M11.9826659,34.191 L13.8185,23.821 C15.0325,16.971 20.9615,12 27.9175,12 L60.1815,12 C67.1385,12 73.0675,16.971 74.2805,23.821 L76.1163341,34.191 L82.0989,34.191 C83.7559,34.191 85.0989,35.534 85.0989,37.191 C85.0989,38.848 83.7559,40.191 82.0989,40.191 L80.3695091,40.191 C82.6787455,43.2287517 84.0494,47.0189426 84.0494,51.1295 C84.0494,56.1069573 82.0396519,60.614671 78.7873,63.8854968 L78.7873,76.5822 L68.0553,76.5822 L68.0553,69.1003031 C67.3673505,69.1796946 66.667644,69.2205 65.9584,69.2205 L22.1414,69.2205 C21.4320922,69.2205 20.7323186,69.1796872 20.0443,69.1002817 L20.0443,76.5822 L9.3123,76.5822 L9.3123,63.8858012 C6.05952102,60.6149508 4.0494,56.1071118 4.0494,51.1295 C4.0494,47.0189426 5.42022371,43.2287517 7.72965935,40.191 L6,40.191 C4.343,40.191 3,38.848 3,37.191 C3,35.534 4.343,34.191 6,34.191 L11.9826659,34.191 Z M70.3044,56.5405 C73.2924,56.5405 75.7154,54.1175 75.7154,51.1295 C75.7154,48.1415 73.2924,45.7185 70.3044,45.7185 C67.3164,45.7185 64.8934,48.1415 64.8934,51.1295 C64.8934,54.1175 67.3164,56.5405 70.3044,56.5405 Z M57.3154,54.5135 C59.1844,54.5135 60.6994,52.9985 60.6994,51.1295 C60.6994,49.2605 59.1844,47.7455 57.3154,47.7455 L30.7844,47.7455 C28.9154,47.7455 27.4004,49.2605 27.4004,51.1295 C27.4004,52.9985 28.9154,54.5135 30.7844,54.5135 L57.3154,54.5135 Z M17.7954,56.5405 C20.7834,56.5405 23.2064,54.1175 23.2064,51.1295 C23.2064,48.1415 20.7834,45.7185 17.7954,45.7185 C14.8064,45.7185 12.3844,48.1415 12.3844,51.1295 C12.3844,54.1175 14.8064,56.5405 17.7954,56.5405 Z" id="Combined-Shape" fill="url(#linearGradient-1)"></path>
    </g>
</svg>